<svg fill="#000000" xmlns="http://www.w3.org/2000/svg"  viewBox="0 0 50 50" width="500px" height="500px"><path d="M18.517,34.378l-3.221-6.089c-0.122-0.226-0.248-0.644-0.378-1.252h-0.052c-0.061,0.287-0.205,0.722-0.431,1.304l-3.233,6.037h-5.02l5.959-9.349l-5.45-9.35h5.125l2.673,5.607c0.209,0.443,0.396,0.969,0.561,1.578H15.1c0.104-0.365,0.3-0.909,0.587-1.63l2.973-5.555h4.694l-5.607,9.271l5.764,9.427H18.517z"/><path fill="none" stroke="#000000" stroke-linecap="round" stroke-linejoin="round" stroke-miterlimit="10" stroke-width="2" d="M29,43h18c0.552,0,1-0.448,1-1s0-33.448,0-34s-0.448-1-1-1H29"/><path fill="none" stroke="#000000" stroke-linejoin="round" stroke-miterlimit="10" stroke-width="2" d="M29 36L34 36M36 36L44 36M29 28L34 28M36 28L44 28M29 21L34 21M36 21L44 21M29 14L34 14M36 14L44 14"/><path fill="none" stroke="#000000" stroke-linecap="round" stroke-linejoin="round" stroke-miterlimit="10" stroke-width="2" d="M1,6.333v37.334L29,49V1L1,6.333z"/></svg>